# xmcd
# 
# Track frame offsets:
#     150
#     25994
#     40127
#     68161
#     86473
#     118809
#     139896
# 
# Disc length: 2302
# 
# Revision: 0
# Processed by: cddbd v1.5.2PL0 Copyright (c) Steve Scherf et al.
# Submitted via: fre:ac v1.0.17
# 
DISCID=5c08fc07
DTITLE=Atheos - The Human Burden
DYEAR=2013
DGENRE=Death Metal
TTITLE0=Ominous Adversary
TTITLE1=Shroud Of Primacy
TTITLE2=The Human Burden
TTITLE3=Throes Of Devotion
TTITLE4=The Language Of The Martyrs
TTITLE5=Beneath The Names
TTITLE6=Towers Entombed
EXTD=
EXTT0=
EXTT1=
EXTT2=
EXTT3=
EXTT4=
EXTT5=
EXTT6=
PLAYORDER=
